<svg width="140" height="46" viewBox="0 0 140 46" fill="none" xmlns="http://www.w3.org/2000/svg">
<rect width="140" height="46" fill="white"/>
<path fill-rule="evenodd" clip-rule="evenodd" d="M18.5757 30.1671L25.9821 30.3157L26.0385 30.9235L12.2676 33.7333L23.0266 9.19995L33.7342 33.6202H29.4402L23.0648 18.7744L18.5757 30.1671Z" fill="#11394A"/>
<path d="M1.13206 24.3489L1.13191 1.13225L23.2136 1.13887L23.2148 1.13887C31.7327 1.13224 36.2298 5.07019 38.2235 6.91328C46.8372 15.2844 47.113 29.1353 38.8356 37.8503C30.5274 46.5979 16.3805 47.365 7.79919 39.0355L7.77291 39.01L7.74504 38.9863C5.93408 37.4428 1.47859 32.7602 1.13206 24.3489Z" stroke="#11394A" stroke-width="2.26382"/>
<path d="M55.6238 21.7182C54.578 20.9763 54.0552 19.9279 54.0552 18.573C54.0552 17.2181 54.578 16.1777 55.6238 15.4519C56.6776 14.7261 58.0323 14.3632 59.6882 14.3632H63.6217C63.6217 13.4196 63.4276 12.7623 63.0394 12.3913C62.6512 12.0204 61.9699 11.8349 60.9954 11.8349C60.0288 11.8349 59.3475 12.0809 58.9513 12.5728C58.5631 13.0567 58.0838 13.2986 57.5134 13.2986H55.7427C55.5288 13.2986 55.3505 13.2301 55.2079 13.093C55.0732 12.9478 55.0059 12.7704 55.0059 12.5607C55.0059 10.2461 57.1648 9.08883 61.4826 9.08883C63.3682 9.08883 64.8814 9.52029 66.0223 10.3832C67.1632 11.2381 67.7336 12.5647 67.7336 14.3632V21.8513C67.7336 22.069 67.6663 22.2465 67.5316 22.3836C67.3969 22.5207 67.2226 22.5892 67.0087 22.5892H64.7151C64.5012 22.5892 64.3269 22.5207 64.1922 22.3836C64.0575 22.2384 63.9902 22.061 63.9902 21.8513V21.4763C62.7384 22.3876 61.2925 22.8392 59.6525 22.8312C58.0204 22.8312 56.6776 22.4602 55.6238 21.7182ZM59.9734 17.1092C59.4188 17.1092 58.9791 17.2463 58.6543 17.5205C58.3373 17.7947 58.1789 18.1496 58.1789 18.5851C58.1789 19.0206 58.3453 19.3795 58.678 19.6617C59.0108 19.944 59.4822 20.0851 60.0922 20.0851C61.3123 20.0851 62.4888 19.7222 63.6217 18.9964V17.1092H59.9734Z" fill="#11394A"/>
<path d="M80.8939 12.4034L79.0638 12.3309C77.9942 12.3309 76.9722 12.9277 75.9977 14.1212V21.8513C75.9977 22.069 75.9264 22.2465 75.7838 22.3836C75.6491 22.5207 75.4788 22.5892 75.2728 22.5892H72.6108C72.3969 22.5892 72.2226 22.5207 72.0879 22.3836C71.9532 22.2465 71.8859 22.069 71.8859 21.8513V10.0808C71.8859 9.86305 71.9532 9.68562 72.0879 9.54852C72.2305 9.40335 72.4048 9.33077 72.6108 9.33077H75.2728C75.4867 9.33077 75.661 9.40335 75.7957 9.54852C75.9304 9.68562 75.9977 9.86305 75.9977 10.0808V10.8429C76.8058 10.2461 77.5822 9.80659 78.327 9.52433C79.0796 9.23399 80.062 9.08883 81.2742 9.08883C81.4881 9.08883 81.6624 9.16141 81.7971 9.30658C81.9397 9.44368 82.011 9.61707 82.011 9.82675V11.6655C82.011 11.8833 81.9397 12.0607 81.7971 12.1978C81.6624 12.3349 81.4881 12.4034 81.2742 12.4034H80.8939Z" fill="#11394A"/>
<path d="M84.9392 5.99196C84.9392 5.77422 85.0065 5.59679 85.1412 5.45969C85.2838 5.31453 85.4581 5.24194 85.6641 5.24194H88.3261C88.5321 5.24194 88.7025 5.31453 88.8371 5.45969C88.9798 5.59679 89.0511 5.77422 89.0511 5.99196V9.70578C90.3345 9.29448 91.4793 9.08883 92.4855 9.08883C94.4345 9.08883 95.9834 9.68159 97.1322 10.8671C98.2809 12.0446 98.8553 13.7462 98.8553 15.9721C98.8553 20.5448 96.3399 22.8312 91.309 22.8312C90.1602 22.8312 88.9679 22.7021 87.7319 22.4441C86.5039 22.1779 85.573 21.8553 84.9392 21.4763V5.99196ZM89.0511 12.5002V19.6375C89.7324 19.823 90.5999 19.9158 91.6536 19.9158C92.7074 19.9158 93.464 19.6053 93.9235 18.9843C94.3909 18.3633 94.6246 17.3592 94.6246 15.9721C94.6246 14.585 94.3949 13.5809 93.9354 12.9599C93.4838 12.3309 92.7153 12.0163 91.6299 12.0163C90.9327 12.0163 90.0731 12.1776 89.0511 12.5002Z" fill="#11394A"/>
<path d="M102.271 6.80247V6.39117C102.271 5.96374 102.39 5.62502 102.627 5.37501C102.873 5.125 103.21 5 103.637 5H105.111C105.531 5 105.864 5.125 106.109 5.37501C106.355 5.61695 106.478 5.95567 106.478 6.39117V6.80247C106.478 7.2299 106.355 7.56862 106.109 7.81863C105.872 8.06864 105.539 8.19364 105.111 8.19364H103.637C103.218 8.19364 102.885 8.06864 102.639 7.81863C102.394 7.56862 102.271 7.2299 102.271 6.80247ZM102.318 21.8513V10.3711C102.318 10.1534 102.386 9.97595 102.52 9.83885C102.663 9.70175 102.837 9.6332 103.043 9.6332H105.705C105.919 9.6332 106.093 9.70578 106.228 9.85095C106.363 9.98805 106.43 10.1614 106.43 10.3711V21.8513C106.43 22.069 106.359 22.2465 106.216 22.3836C106.082 22.5207 105.911 22.5892 105.705 22.5892H103.043C102.829 22.5892 102.655 22.5207 102.52 22.3836C102.386 22.2465 102.318 22.069 102.318 21.8513Z" fill="#11394A"/>
<path d="M113.197 18.6698C114.266 18.6698 114.801 19.2182 114.801 20.315V21.0771C114.801 21.5852 114.663 21.9844 114.385 22.2747C114.116 22.565 113.72 22.7102 113.197 22.7102H111.735C111.212 22.7102 110.812 22.565 110.535 22.2747C110.266 21.9844 110.131 21.5852 110.131 21.0771V20.315C110.131 19.7827 110.269 19.3754 110.547 19.0932C110.824 18.8109 111.22 18.6698 111.735 18.6698H113.197ZM111.735 13.1293C110.666 13.1293 110.131 12.5809 110.131 11.4841V10.7219C110.131 10.2139 110.269 9.81466 110.547 9.52433C110.824 9.23399 111.22 9.08883 111.735 9.08883H113.197C113.72 9.08883 114.116 9.23399 114.385 9.52433C114.663 9.81466 114.801 10.2139 114.801 10.7219V11.4841C114.801 12.5809 114.266 13.1293 113.197 13.1293H111.735Z" fill="#11394A"/>
<path d="M118.466 21.8513V10.0808C118.466 9.86305 118.534 9.68562 118.668 9.54852C118.811 9.40335 118.985 9.33077 119.191 9.33077H121.853C122.067 9.33077 122.241 9.40335 122.376 9.54852C122.511 9.68562 122.578 9.86305 122.578 10.0808V10.8429C123.149 10.2784 123.707 9.84692 124.254 9.54852C124.808 9.24206 125.474 9.08883 126.25 9.08883C128.096 9.08883 129.495 9.86305 130.445 11.4115C131.919 9.85498 133.428 9.08076 134.973 9.08883C136.526 9.08883 137.75 9.56465 138.645 10.5163C139.548 11.4599 140 12.9236 140 14.9075V21.8513C140 22.069 139.933 22.2465 139.798 22.3836C139.663 22.5207 139.489 22.5892 139.275 22.5892H136.625C136.411 22.5892 136.233 22.5207 136.09 22.3836C135.955 22.2384 135.888 22.061 135.888 21.8513V14.9075C135.888 12.972 135.199 12.0083 133.82 12.0163C132.981 12.0163 132.113 12.6333 131.218 13.8672C131.265 14.214 131.289 14.5608 131.289 14.9075V21.8513C131.289 22.069 131.218 22.2465 131.075 22.3836C130.94 22.5207 130.77 22.5892 130.564 22.5892H127.914C127.7 22.5892 127.522 22.5207 127.379 22.3836C127.245 22.2384 127.177 22.061 127.177 21.8513V14.9075C127.177 12.972 126.488 12.0083 125.109 12.0163C124.23 12.0163 123.386 12.593 122.578 13.7462V21.8513C122.578 22.069 122.507 22.2465 122.364 22.3836C122.23 22.5207 122.059 22.5892 121.853 22.5892H119.191C118.977 22.5892 118.803 22.5207 118.668 22.3836C118.534 22.2465 118.466 22.069 118.466 21.8513Z" fill="#11394A"/>
<path d="M57.4974 38.5443C56.5029 38.5443 55.6702 38.1883 54.9992 37.4762C54.3331 36.7642 54 35.7446 54 34.4175C54 33.0855 54.345 32.0659 55.0349 31.3587C55.7296 30.6467 56.6623 30.2907 57.8328 30.2907C58.4371 30.2907 59.1247 30.4142 59.8955 30.6612V28.4307C59.8955 28.2999 59.936 28.1934 60.0169 28.111C60.1025 28.0238 60.2072 27.9802 60.3309 27.9802H61.9226C62.0511 27.9802 62.1557 28.0238 62.2366 28.111C62.3223 28.1934 62.3651 28.2999 62.3651 28.4307V37.9558C62.3651 38.0817 62.3223 38.1883 62.2366 38.2754C62.1557 38.3578 62.0511 38.399 61.9226 38.399H60.5522C60.4237 38.399 60.319 38.3578 60.2381 38.2754C60.1573 38.1883 60.1168 38.0817 60.1168 37.9558V37.7305C59.365 38.273 58.4918 38.5443 57.4974 38.5443ZM58.3467 32.0489C57.6901 32.0489 57.2261 32.2378 56.9549 32.6156C56.6837 32.9886 56.5481 33.5892 56.5481 34.4175C56.5481 35.2457 56.6766 35.8488 56.9335 36.2266C57.1904 36.6044 57.5759 36.7933 58.0898 36.7933C58.6084 36.7933 59.2104 36.5753 59.8955 36.1394V32.3395C59.2817 32.1458 58.7654 32.0489 58.3467 32.0489Z" fill="#11394A"/>
<path d="M65.2629 28.9175V28.6705C65.2629 28.4137 65.3343 28.2103 65.477 28.0602C65.6246 27.91 65.8268 27.8349 66.0837 27.8349H66.9688C67.221 27.8349 67.4208 27.91 67.5683 28.0602C67.7158 28.2055 67.7896 28.4089 67.7896 28.6705V28.9175C67.7896 29.1742 67.7158 29.3776 67.5683 29.5278C67.4256 29.6779 67.2257 29.753 66.9688 29.753H66.0837C65.8315 29.753 65.6317 29.6779 65.4842 29.5278C65.3367 29.3776 65.2629 29.1742 65.2629 28.9175ZM65.2915 37.9558V31.0608C65.2915 30.93 65.3319 30.8235 65.4128 30.7411C65.4985 30.6588 65.6031 30.6176 65.7269 30.6176H67.3257C67.4541 30.6176 67.5588 30.6612 67.6397 30.7484C67.7206 30.8307 67.761 30.9349 67.761 31.0608V37.9558C67.761 38.0865 67.7182 38.1931 67.6326 38.2754C67.5517 38.3578 67.4494 38.399 67.3257 38.399H65.7269C65.5984 38.399 65.4937 38.3578 65.4128 38.2754C65.3319 38.1931 65.2915 38.0865 65.2915 37.9558Z" fill="#11394A"/>
<path d="M73.8564 37.7887C72.7763 37.7887 71.9031 37.4569 71.237 36.7933C70.5756 36.1297 70.2449 35.2094 70.2449 34.0324C70.2449 32.8554 70.6232 31.9375 71.3797 31.2788C72.1363 30.62 73.2212 30.2907 74.6344 30.2907C75.3244 30.2907 76.0405 30.3706 76.7828 30.5304C77.5251 30.6854 78.0842 30.8767 78.4601 31.1044V37.8322C78.4601 38.9124 78.1104 39.7092 77.4109 40.2226C76.7114 40.7409 75.7288 41 74.4631 41C73.2022 41 72.2291 40.8377 71.5439 40.5132C70.8635 40.1935 70.5232 39.6631 70.5232 38.9221C70.5232 38.7913 70.5637 38.6823 70.6446 38.5951C70.7302 38.5128 70.8373 38.4716 70.9658 38.4716H72.0292C72.3718 38.4716 72.6454 38.6 72.8501 38.8567C73.1118 39.186 73.5757 39.3507 74.2419 39.3507C74.9128 39.3507 75.372 39.2393 75.6194 39.0165C75.8668 38.7937 75.9905 38.399 75.9905 37.8322V37.4908C75.2292 37.6894 74.5178 37.7887 73.8564 37.7887ZM74.4845 32.0489C73.3568 32.0441 72.793 32.7077 72.793 34.0397C72.793 35.3668 73.3425 36.0304 74.4417 36.0304C74.8985 36.0304 75.4148 35.9577 75.9905 35.8124V32.2088C75.5813 32.0974 75.0793 32.0441 74.4845 32.0489Z" fill="#11394A"/>
<path d="M81.3651 28.9175V28.6705C81.3651 28.4137 81.4364 28.2103 81.5792 28.0602C81.7267 27.91 81.9289 27.8349 82.1859 27.8349H83.0709C83.3231 27.8349 83.5229 27.91 83.6705 28.0602C83.818 28.2055 83.8917 28.4089 83.8917 28.6705V28.9175C83.8917 29.1742 83.818 29.3776 83.6705 29.5278C83.5277 29.6779 83.3279 29.753 83.0709 29.753H82.1859C81.9337 29.753 81.7338 29.6779 81.5863 29.5278C81.4388 29.3776 81.3651 29.1742 81.3651 28.9175ZM81.3936 37.9558V31.0608C81.3936 30.93 81.434 30.8235 81.5149 30.7411C81.6006 30.6588 81.7053 30.6176 81.829 30.6176H83.4278C83.5563 30.6176 83.6609 30.6612 83.7418 30.7484C83.8227 30.8307 83.8632 30.9349 83.8632 31.0608V37.9558C83.8632 38.0865 83.8203 38.1931 83.7347 38.2754C83.6538 38.3578 83.5515 38.399 83.4278 38.399H81.829C81.7005 38.399 81.5958 38.3578 81.5149 38.2754C81.434 38.1931 81.3936 38.0865 81.3936 37.9558Z" fill="#11394A"/>
<path d="M90.5153 36.8223L91.4931 36.7352H91.7572C91.8857 36.7352 91.9904 36.7763 92.0713 36.8587C92.1569 36.941 92.1997 37.0476 92.1997 37.1784V37.9558C92.1997 38.0623 92.1569 38.1592 92.0713 38.2464C91.9904 38.3287 91.8857 38.3796 91.7572 38.399C91.2719 38.4958 90.639 38.5443 89.8586 38.5443C87.8126 38.5443 86.7895 37.4544 86.7895 35.2748V28.4307C86.7895 28.2999 86.83 28.1934 86.9109 28.111C86.9965 28.0238 87.1012 27.9802 87.2249 27.9802H88.8237C88.9474 27.9802 89.0497 28.0238 89.1306 28.111C89.2163 28.1934 89.2591 28.2999 89.2591 28.4307V30.8574H91.2504C91.3742 30.8574 91.4765 30.8985 91.5574 30.9809C91.643 31.0632 91.6858 31.1698 91.6858 31.3006V32.1652C91.6858 32.2959 91.643 32.4025 91.5574 32.4848C91.4765 32.5672 91.3742 32.6084 91.2504 32.6084H89.2591V35.2748C89.2591 35.7688 89.3733 36.1515 89.6017 36.4227C89.8301 36.6891 90.1346 36.8223 90.5153 36.8223Z" fill="#11394A"/>
<path d="M94.9405 37.8758C94.3124 37.4302 93.9984 36.8005 93.9984 35.9868C93.9984 35.1731 94.3124 34.5482 94.9405 34.1123C95.5734 33.6764 96.387 33.4584 97.3815 33.4584H99.744C99.744 32.8917 99.6275 32.497 99.3943 32.2741C99.1611 32.0513 98.7519 31.9399 98.1666 31.9399C97.5861 31.9399 97.1769 32.0877 96.939 32.3831C96.7058 32.6737 96.418 32.8191 96.0754 32.8191H95.0119C94.8834 32.8191 94.7764 32.7779 94.6907 32.6955C94.6098 32.6084 94.5694 32.5018 94.5694 32.3759C94.5694 30.9857 95.866 30.2907 98.4593 30.2907C99.5918 30.2907 100.501 30.5498 101.186 31.0681C101.871 31.5815 102.214 32.3783 102.214 33.4584V37.9558C102.214 38.0865 102.173 38.1931 102.092 38.2754C102.011 38.3578 101.907 38.399 101.778 38.399H100.401C100.272 38.399 100.168 38.3578 100.087 38.2754C100.006 38.1883 99.9653 38.0817 99.9653 37.9558V37.7305C99.2135 38.2779 98.3451 38.5491 97.3601 38.5443C96.3799 38.5443 95.5734 38.3215 94.9405 37.8758ZM97.5528 35.1077C97.2197 35.1077 96.9557 35.19 96.7606 35.3547C96.5702 35.5194 96.4751 35.7325 96.4751 35.9941C96.4751 36.2556 96.575 36.4712 96.7748 36.6407C96.9747 36.8102 97.2578 36.895 97.6242 36.895C98.357 36.895 99.0636 36.677 99.744 36.2411V35.1077H97.5528Z" fill="#11394A"/>
<path d="M105.119 37.9558V28.4307C105.119 28.2999 105.159 28.1934 105.24 28.111C105.326 28.0238 105.43 27.9802 105.554 27.9802H107.153C107.276 27.9802 107.379 28.0238 107.46 28.111C107.545 28.1934 107.588 28.2999 107.588 28.4307V37.9558C107.588 38.0817 107.545 38.1883 107.46 38.2754C107.379 38.3578 107.276 38.399 107.153 38.399H105.554C105.43 38.399 105.326 38.3578 105.24 38.2754C105.159 38.1883 105.119 38.0817 105.119 37.9558Z" fill="#11394A"/>
</svg>
