<svg width="72" height="72" viewBox="0 0 72 72" fill="none" xmlns="http://www.w3.org/2000/svg">
<path d="M60.019 47.2343C55.6939 45.0506 50.9416 43.5471 46.262 42.6026C45.1553 41.4148 44.394 39.9472 44.0603 38.3583C46.957 36.0928 49.1747 32.6948 50.3897 28.6467C53.7446 28.1388 54.617 22.9836 53.2864 20.1607C59.3959 -6.61175 12.7625 -6.66729 18.7268 20.1024C17.3268 22.9239 18.1979 28.1486 21.5918 28.6494C22.7907 32.6974 25.0244 36.0956 27.9212 38.361C27.5747 40.0199 26.7653 41.5467 25.5868 42.7645C23.3718 43.1518 22.0083 43.478 21.9791 43.51C12.9044 46.0079 4.85135 48.8152 5.95694 59.986C5.49626 75.9866 66.4794 76.0015 66.0433 59.9864C66.5226 54.9463 64.8953 49.5325 60.019 47.2343ZM36.0304 2.20178C46.5576 2.0568 52.7575 8.98061 51.3923 18.325C50.7699 18.0252 50.0224 18.0121 49.3524 18.1631C49.0872 17.3673 48.6548 16.0913 47.912 14.0196C47.8176 13.8361 47.6634 13.67 47.5406 13.5024C38.0542 7.1906 34.094 18.8941 25.5761 13.468C25.5258 13.4362 25.4912 13.4069 25.4462 13.3725C25.0111 13.2615 24.5235 13.3352 24.2472 13.728C23.3655 15.5035 22.9023 17.4714 22.6105 18.1633C21.9671 17.9986 21.2612 18.0123 20.6528 18.2932C19.2872 8.95671 25.5068 2.05975 36.0304 2.20178ZM23.438 27.1612C22.8978 25.7946 22.0011 26.7664 21.414 26.3177C20.0823 25.4125 19.7513 20.7841 21.462 20.2985C22.3514 20.0059 23.1371 21.1393 23.9713 20.4895C24.205 20.3054 24.3612 20.0404 24.4091 19.7467C24.4886 19.3885 25.0537 17.7386 25.6717 16.033C35.3803 20.4885 37.4686 10.332 46.0022 15.1151C47.127 17.8618 47.1515 19.3187 48.0073 20.487C48.8387 21.1407 49.63 19.9958 50.5171 20.2959C51.1988 20.4868 51.8434 21.784 51.6843 23.5322C51.5516 24.9885 51.0025 25.9196 50.5674 26.3149C49.9356 26.7251 48.9758 25.7987 48.5434 27.1585C44.6747 42.8769 27.2914 42.8807 23.438 27.1612ZM29.8656 39.6581C31.7333 40.7187 33.8443 41.2762 35.9921 41.2762C38.1398 41.2762 40.2508 40.7187 42.1185 39.6581C42.5889 41.291 43.4367 42.7903 44.5935 44.0351C44.0285 45.8151 39.9619 49.184 35.9987 51.643C32.0195 49.1839 27.9529 45.8071 27.4013 44.0351C28.5529 42.7883 29.3969 41.2894 29.8656 39.6581ZM8.1424 59.9859C7.33141 51.0788 12.2142 48.87 19.6977 46.4251C19.3529 47.8542 19.0872 49.3012 18.9019 50.7596C14.2614 52.1599 14.5123 56.43 15.2411 60.3439C14.2227 61.7285 15.9441 63.6138 17.4138 62.7074C18.5094 62.1093 18.4674 60.4208 17.3633 59.8585C16.9511 56.9901 16.1663 53.4444 20.0941 52.861C23.8158 52.6964 23.8848 56.3015 24.1676 59.0282C23.2132 59.8531 23.6436 61.4981 24.8602 61.7912C26.4606 62.2782 27.671 60.0875 26.3508 59.0282C26.1102 55.3466 25.536 51.2404 21.1063 50.6457C21.3465 48.981 21.6912 47.333 22.1382 45.7116C22.8477 45.5253 23.1744 45.418 25.4727 44.9981C26.8814 48.3006 32.7439 52.1869 34.9111 53.5133V69.7957C22.1704 69.2739 8.15294 66.6678 8.1424 59.9859ZM63.8494 59.9859C63.8461 66.6546 49.8319 69.2771 37.0756 69.7956V53.5132C39.2773 52.1523 45.2194 48.2077 46.5483 44.9024C47.623 45.1063 48.6617 45.373 49.6865 45.6452C50.3096 47.9242 50.7321 50.2534 50.9492 52.606C45.8762 54.4319 48.4632 62.022 53.5949 60.3698C57.4748 59.1816 57.1066 53.2099 53.1351 52.4786C52.9419 50.424 52.6059 48.3853 52.1298 46.3773C59.6515 48.806 64.6895 51.0269 63.8494 59.9859ZM52.2757 54.5504C54.7682 54.5752 54.7744 58.3569 52.2739 58.3687C49.7719 58.3514 49.7886 54.5708 52.2811 54.5504H52.2757Z" fill="#11394A"/>
</svg>
