<svg width="62" height="62" viewBox="0 0 62 62" fill="none" xmlns="http://www.w3.org/2000/svg">
<rect width="62" height="62" rx="31" fill="#F2F3F3"/>
<path d="M19.5176 26.458C16.7227 28.6071 15 30.7718 15 31C15 31.4658 22.1775 40 31 40C39.8225 40 47 31.4658 47 31C47 30.5343 39.8225 22 31 22C27.8086 22 24.8324 23.1167 22.3333 24.5644" stroke="#11394A" stroke-width="2" stroke-miterlimit="10" stroke-linecap="round" stroke-linejoin="round"/>
<path d="M33 31C33 32.1046 32.1045 33 31 33C29.8955 33 29 32.1046 29 31C29 29.8954 29.8955 29 31 29C32.1045 29 33 29.8954 33 31Z" fill="#11394A"/>
<path d="M36 31C36 33.7615 33.7613 36 31.0001 36C28.2387 36 26 33.7615 26 31C26 28.2385 28.2387 26 31.0001 26C33.7613 26 36 28.2385 36 31Z" stroke="#11394A" stroke-width="2" stroke-miterlimit="10" stroke-linecap="round" stroke-linejoin="round"/>
</svg>
