<svg width="72" height="72" viewBox="0 0 72 72" fill="none" xmlns="http://www.w3.org/2000/svg">
<g clip-path="url(#clip0_1_650)">
<mask id="mask0_1_650" style="mask-type:luminance" maskUnits="userSpaceOnUse" x="0" y="0" width="72" height="72">
<path d="M0 0.000213623H71.9998V72H0V0.000213623Z" fill="white"/>
</mask>
<g mask="url(#mask0_1_650)">
<path d="M48.4452 13.5002H52.8074C55.1375 13.5002 57.0261 15.3888 57.0261 17.7189V70.9453H14.9062V17.7189C14.9062 15.3888 16.7948 13.5002 19.125 13.5002H23.5547" stroke="#11394A" stroke-width="2" stroke-miterlimit="10" stroke-linecap="round" stroke-linejoin="round"/>
<path d="M36 25.9454C29.1376 25.9454 23.5547 20.3625 23.5547 13.5002C23.5547 6.63782 29.1376 1.05488 36 1.05488C42.8623 1.05488 48.4452 6.63782 48.4452 13.5002C48.4452 20.3625 42.8623 25.9454 36 25.9454Z" stroke="#11394A" stroke-width="2" stroke-miterlimit="10" stroke-linecap="round" stroke-linejoin="round"/>
<path d="M43.3828 11.3908H38.5312C38.4193 11.3908 38.312 11.3463 38.2329 11.2672C38.1538 11.1881 38.1093 11.0808 38.1093 10.9689V6.11736C38.1093 5.89358 38.0205 5.67897 37.8622 5.52074C37.704 5.3625 37.4894 5.27361 37.2656 5.27361H34.7344C34.5106 5.27361 34.296 5.3625 34.1377 5.52074C33.9795 5.67897 33.8906 5.89358 33.8906 6.11736V10.9689C33.8906 11.0808 33.8462 11.1881 33.767 11.2672C33.6879 11.3463 33.5806 11.3908 33.4687 11.3908H28.6172C28.3934 11.3908 28.1788 11.4797 28.0206 11.6379C27.8623 11.7961 27.7734 12.0107 27.7734 12.2345V14.7658C27.7734 14.9895 27.8623 15.2042 28.0206 15.3624C28.1788 15.5206 28.3934 15.6095 28.6172 15.6095H33.4687C33.5806 15.6095 33.6879 15.654 33.767 15.7331C33.8462 15.8122 33.8906 15.9195 33.8906 16.0314V20.8829C33.8906 21.1067 33.9795 21.3213 34.1377 21.4796C34.296 21.6378 34.5106 21.7267 34.7344 21.7267H37.2656C37.4894 21.7267 37.704 21.6378 37.8622 21.4796C38.0205 21.3213 38.1093 21.1067 38.1093 20.8829V16.0314C38.1093 15.9195 38.1538 15.8122 38.2329 15.7331C38.312 15.654 38.4193 15.6095 38.5312 15.6095H43.3828C43.6065 15.6095 43.8212 15.5206 43.9794 15.3624C44.1376 15.2042 44.2265 14.9895 44.2265 14.7658V12.2345C44.2265 12.0107 44.1376 11.7961 43.9794 11.6379C43.8212 11.4797 43.6065 11.3908 43.3828 11.3908Z" stroke="#11394A" stroke-width="2" stroke-miterlimit="10" stroke-linecap="round" stroke-linejoin="round"/>
<path d="M46.4797 50.2631V70.9453" stroke="#11394A" stroke-width="2" stroke-miterlimit="10" stroke-linecap="round" stroke-linejoin="round"/>
<path d="M25.52 58.7863V50.2631" stroke="#11394A" stroke-width="2" stroke-miterlimit="10" stroke-linecap="round" stroke-linejoin="round"/>
<path d="M25.52 70.9453V63.7081" stroke="#11394A" stroke-width="2" stroke-miterlimit="10" stroke-linecap="round" stroke-linejoin="round"/>
<path d="M47.7453 46.0443H24.2541C24.0304 46.0443 23.8158 46.1332 23.6575 46.2915C23.4993 46.4497 23.4104 46.6643 23.4104 46.8881V49.4193C23.4104 49.6431 23.4993 49.8577 23.6575 50.0159C23.8158 50.1742 24.0304 50.2631 24.2541 50.2631H47.7453C47.9691 50.2631 48.1837 50.1742 48.342 50.0159C48.5002 49.8577 48.5891 49.6431 48.5891 49.4193V46.8881C48.5891 46.6643 48.5002 46.4497 48.342 46.2915C48.1837 46.1332 47.9691 46.0443 47.7453 46.0443Z" stroke="#11394A" stroke-width="2" stroke-miterlimit="10" stroke-linecap="round" stroke-linejoin="round"/>
<path d="M36 50.2631V70.9453" stroke="#11394A" stroke-width="2" stroke-miterlimit="10" stroke-linecap="round" stroke-linejoin="round"/>
<path d="M40.2188 59.5249V61.6836" stroke="#11394A" stroke-width="2" stroke-miterlimit="10" stroke-linecap="round" stroke-linejoin="round"/>
<path d="M31.7812 59.5249V61.6836" stroke="#11394A" stroke-width="2" stroke-miterlimit="10" stroke-linecap="round" stroke-linejoin="round"/>
<path d="M31.7108 39.7168H22.3644C22.2162 39.7168 22.0695 39.6875 21.9327 39.6306C21.7959 39.5738 21.6716 39.4904 21.5671 39.3854C21.4626 39.2804 21.3799 39.1558 21.3236 39.0187C21.2674 38.8816 21.2388 38.7348 21.2395 38.5866L21.263 33.3935C21.2643 33.096 21.3835 32.8111 21.5943 32.6012C21.8051 32.3914 22.0905 32.2735 22.388 32.2735H31.7108C32.0092 32.2735 32.2954 32.3921 32.5063 32.603C32.7173 32.814 32.8358 33.1002 32.8358 33.3985V38.5918C32.8358 38.8902 32.7173 39.1763 32.5063 39.3873C32.2954 39.5983 32.0092 39.7168 31.7108 39.7168Z" stroke="#11394A" stroke-width="2" stroke-miterlimit="10" stroke-linecap="round" stroke-linejoin="round"/>
<path d="M40.2891 32.2735H49.6018C49.7499 32.2735 49.8967 32.3028 50.0335 32.3597C50.1703 32.4165 50.2945 32.4998 50.3991 32.6048C50.5036 32.7098 50.5864 32.8344 50.6426 32.9715C50.6988 33.1086 50.7274 33.2554 50.7268 33.4036L50.7032 38.5969C50.7018 38.8944 50.5827 39.1792 50.3719 39.3891C50.161 39.599 49.8756 39.7168 49.5782 39.7168H40.2891C39.9907 39.7168 39.7045 39.5983 39.4936 39.3873C39.2826 39.1763 39.1641 38.8902 39.1641 38.5918V33.3985C39.1641 33.1002 39.2826 32.814 39.4936 32.603C39.7045 32.3921 39.9907 32.2735 40.2891 32.2735Z" stroke="#11394A" stroke-width="2" stroke-miterlimit="10" stroke-linecap="round" stroke-linejoin="round"/>
<path d="M61.9485 23.3641H66.7263C69.0562 23.3641 70.9451 25.253 70.9451 27.5829V69.8203C70.9451 70.1187 70.8265 70.4048 70.6156 70.6158C70.4046 70.8268 70.1184 70.9453 69.8201 70.9453H57.0266" stroke="#11394A" stroke-width="2" stroke-miterlimit="10" stroke-linecap="round" stroke-linejoin="round"/>
<path d="M57.0266 29.6922H63.492C63.6401 29.6922 63.7868 29.7215 63.9237 29.7784C64.0605 29.8352 64.1847 29.9185 64.2893 30.0235C64.3938 30.1285 64.4765 30.2531 64.5328 30.3902C64.589 30.5273 64.6176 30.6741 64.617 30.8223L64.5933 36.0156C64.592 36.3131 64.4729 36.5979 64.262 36.8078C64.0512 37.0177 63.7658 37.1355 63.4683 37.1355H57.0266" stroke="#11394A" stroke-width="2" stroke-miterlimit="10" stroke-linecap="round" stroke-linejoin="round"/>
<path d="M57.0266 43.4636H63.492C63.6401 43.4636 63.7868 43.4929 63.9237 43.5497C64.0605 43.6066 64.1847 43.6899 64.2893 43.7949C64.3938 43.8999 64.4765 44.0245 64.5328 44.1616C64.589 44.2987 64.6176 44.4455 64.617 44.5937L64.5933 49.7869C64.592 50.0844 64.4729 50.3693 64.262 50.5791C64.0512 50.789 63.7658 50.9069 63.4683 50.9069H57.0266" stroke="#11394A" stroke-width="2" stroke-miterlimit="10" stroke-linecap="round" stroke-linejoin="round"/>
<path d="M57.0266 57.1739H63.492C63.6401 57.1739 63.7869 57.2032 63.9237 57.2601C64.0605 57.3169 64.1848 57.4003 64.2893 57.5053C64.3938 57.6103 64.4766 57.7349 64.5328 57.872C64.5891 58.0091 64.6176 58.156 64.617 58.3041L64.5933 63.4973C64.592 63.7947 64.4729 64.0796 64.2621 64.2895C64.0512 64.4994 63.7658 64.6172 63.4683 64.6172H57.0266" stroke="#11394A" stroke-width="2" stroke-miterlimit="10" stroke-linecap="round" stroke-linejoin="round"/>
<path d="M14.9731 23.3641H5.27342C2.94356 23.3641 1.05469 25.253 1.05469 27.5829V69.8203C1.05469 70.1187 1.17321 70.4048 1.38419 70.6158C1.59517 70.8268 1.88132 70.9453 2.17968 70.9453H14.9731" stroke="#11394A" stroke-width="2" stroke-miterlimit="10" stroke-linecap="round" stroke-linejoin="round"/>
<path d="M14.9062 37.1349H8.53173C7.91157 37.1349 7.40954 36.6343 7.40673 36.0155L7.38282 30.8223C7.38001 30.1993 7.88485 29.6916 8.50782 29.6916H14.9062" stroke="#11394A" stroke-width="2" stroke-miterlimit="10" stroke-linecap="round" stroke-linejoin="round"/>
<path d="M14.9062 50.9062H8.53173C7.91157 50.9062 7.40954 50.4056 7.40673 49.7869L7.38282 44.5936C7.38001 43.9706 7.88485 43.463 8.50782 43.463H14.9062" stroke="#11394A" stroke-width="2" stroke-miterlimit="10" stroke-linecap="round" stroke-linejoin="round"/>
<path d="M14.9062 64.6172H8.53173C7.91157 64.6172 7.40954 64.1166 7.40673 63.4978L7.38283 58.3046C7.38209 58.1563 7.41064 58.0094 7.46684 57.8723C7.52305 57.7352 7.6058 57.6105 7.71034 57.5054C7.81487 57.4004 7.93914 57.317 8.076 57.2601C8.21286 57.2032 8.35961 57.1739 8.50782 57.1739H14.9062" stroke="#11394A" stroke-width="2" stroke-miterlimit="10" stroke-linecap="round" stroke-linejoin="round"/>
</g>
</g>
<defs>
<clipPath id="clip0_1_650">
<rect width="72" height="72" fill="white"/>
</clipPath>
</defs>
</svg>
