<svg width="44" height="45" viewBox="0 0 44 45" fill="none" xmlns="http://www.w3.org/2000/svg">
<path d="M7.3462 15.0438C7.21236 18.5418 8.09786 24.4836 14.0562 30.4438C15.3541 31.7536 16.7879 32.9213 18.3334 33.9271M10.153 9.55113C12.7069 6.99729 16.7805 7.34013 18.403 10.2478L19.5929 12.3781C20.6654 14.3031 20.2345 16.8258 18.5442 18.518C18.5442 18.518 16.4909 20.5695 20.2125 24.2893C23.9287 28.0055 25.982 25.9576 25.982 25.9576C27.6742 24.2655 30.1987 23.8346 32.1219 24.9071L34.254 26.0988C37.1599 27.7195 37.5027 31.7931 34.9489 34.3488C33.4144 35.8815 31.5334 37.0768 29.4562 37.1538C27.5567 37.2195 25.6587 36.9832 23.8334 36.4535" stroke="#BCC4BC" stroke-width="2" stroke-linecap="round"/>
</svg>
