<svg width="213" height="64" viewBox="0 0 213 64" fill="none" xmlns="http://www.w3.org/2000/svg">
<g clip-path="url(#clip0_1_887)">
<path d="M3.11907 39.5223C-0.0281153 29.7912 1.16417 14.9805 9.11819 7.69465C3.94185 17.4447 1.61727 26.1285 5.43606 37.3431C7.67379 43.9299 12.3789 50.7202 18.4928 54.0235C28.3261 59.3346 29.3475 47.6911 29.3274 41.3865C34.9647 45.9839 33.2133 52.857 29.9149 58.1351C45.1199 49.3634 21.3123 37.0691 30.02 25.8872C28.5569 39.4822 46.7385 46.2612 33.0219 58.361C36.3782 59.6635 39.7162 54.5523 40.3249 51.8968C40.905 56.2241 45.4057 56.3065 48.3786 54.5492C56.6468 49.6544 62.3485 40.9652 63.7296 31.1523C64.9775 22.2803 61.833 15.3751 58.3452 7.51782C62.5878 12.8692 66.5739 21.7183 66.1208 30.7458C64.2934 67.158 13.9993 73.1729 3.11907 39.5223Z" fill="#11394A"/>
<path d="M35.9919 38.173C37.4531 35.1958 39.0717 32.4824 42.3616 31.5396C44.7734 30.85 47.7067 28.3431 47.7088 26.9704C47.7137 24.7643 49.8017 23.3114 51.7657 23.51C51.4289 25.216 50.4996 27.4556 48.4591 27.4556C48.0118 27.4556 47.8221 27.6621 47.3212 28.6878C46.4637 30.4393 45.0125 32.0077 43.3077 33.0208C39.8892 35.0534 40.3081 37.4025 38.4698 40.4913C37.6049 40.1995 35.9919 38.173 35.9919 38.173Z" fill="#11394A"/>
<path d="M38.5729 29.788C38.5729 31.8449 36.9578 33.5123 34.9655 33.5123C32.9732 33.5123 31.3581 31.8449 31.3581 29.788C31.3581 27.7311 32.9732 26.0637 34.9655 26.0637C36.9578 26.0637 38.5729 27.7311 38.5729 29.788Z" fill="#11394A"/>
<path d="M47.0701 21.2138C46.8361 25.8714 44.9305 29.0452 40.354 29.8012C40.1943 25.5667 42.4706 21.2138 47.0701 21.2138Z" fill="#79C1DC"/>
<path d="M47.4405 36.3104C45.7715 38.3688 43.8268 39.1446 41.4577 37.8493C42.803 35.8442 45.3141 34.6592 47.4405 36.3104Z" fill="#79C1DC"/>
<path d="M52.3638 33.7073C50.0911 34.7355 48.1101 34.5466 46.6175 32.4016C48.5915 31.2771 51.2249 31.3644 52.3638 33.7073Z" fill="#79C1DC"/>
<path d="M55.5401 27.6453C53.9739 29.6322 52.1283 30.399 49.8511 29.1955C51.109 27.2638 53.4898 26.0988 55.5401 27.6453Z" fill="#79C1DC"/>
<path d="M58.0019 21.4223C57.9424 23.9832 56.9383 25.7563 54.4241 26.2447C54.2727 23.9223 55.4637 21.496 58.0019 21.4223Z" fill="#79C1DC"/>
<path d="M53.3339 17.5468C52.7464 20.0357 51.3989 21.5467 48.8417 21.4698C49.1738 19.1676 50.839 17.0596 53.3339 17.5468Z" fill="#79C1DC"/>
<path d="M49.0395 14.0308C51.4448 14.6601 53.3689 14.1382 54.5004 11.7694C52.3745 10.9945 49.7906 11.5266 49.0395 14.0308Z" fill="#79C1DC"/>
<path d="M47.9075 11.4126C45.472 11.9023 43.9472 13.2215 43.9022 15.8623C46.1452 15.6272 48.2625 14.0083 47.9075 11.4126Z" fill="#79C1DC"/>
<path d="M44.5506 10.4343C42.3401 9.27075 40.3518 9.33973 38.7403 11.391C40.6472 12.6327 43.2811 12.7046 44.5506 10.4343Z" fill="#79C1DC"/>
<path d="M50.1424 8.18484C48.3668 6.60228 46.5262 6.2031 44.5988 7.7116C46.0787 9.29526 48.4813 9.97394 50.1424 8.18484Z" fill="#79C1DC"/>
<path d="M43.2459 5.05167C42.5216 7.35513 41.1477 8.68126 38.7422 8.4222C39.213 6.27605 40.9271 4.41024 43.2459 5.05167Z" fill="#79C1DC"/>
<path d="M39.0003 2.4458C36.6008 3.43296 35.288 5.08676 35.7366 7.79699C37.987 7.10874 39.8497 5.03009 39.0003 2.4458Z" fill="#79C1DC"/>
<path d="M34.0314 4.3226C32.0647 6.0515 31.3345 8.05235 32.6006 10.4713C34.5187 9.0749 35.638 6.48969 34.0314 4.3226Z" fill="#79C1DC"/>
<path d="M31.1137 4.04916C28.5449 3.76898 26.6372 4.60132 25.8116 7.21538C28.1135 7.68833 30.6995 6.74444 31.1137 4.04916Z" fill="#79C1DC"/>
<path d="M27.5424 15.1129C26.7448 12.5764 25.232 11.1161 22.5831 11.4014C23.1015 13.7646 24.9891 15.8192 27.5424 15.1129Z" fill="#79C1DC"/>
<path d="M22.8478 21.4535C21.5153 18.6292 19.519 17.1813 16.474 17.9616C17.4534 20.631 19.9811 22.7089 22.8478 21.4535Z" fill="#79C1DC"/>
<path d="M28.3056 18.6567C26.8483 16.043 24.8435 14.7928 21.9774 15.7483C23.0866 18.2378 25.6407 20.055 28.3056 18.6567Z" fill="#79C1DC"/>
<path d="M22.1941 10.5151C21.6563 7.90673 22.2592 5.86117 24.6914 4.74088C25.387 7.0551 24.7474 9.80874 22.1941 10.5151Z" fill="#79C1DC"/>
<path d="M21.6468 12.6235C20.8749 10.0785 19.377 8.60203 16.7254 8.85871C17.2198 11.2274 19.0865 13.3022 21.6468 12.6235Z" fill="#79C1DC"/>
<path d="M20.3499 17.3242C17.7703 17.1853 16.0125 16.0547 15.5938 13.3393C17.9391 13.2446 20.3499 14.5952 20.3499 17.3242Z" fill="#79C1DC"/>
<path d="M15.1844 19.8251C13.1443 18.4582 12.2265 16.6819 13.1233 14.2642C15.0789 15.3269 16.4288 17.5999 15.1844 19.8251Z" fill="#79C1DC"/>
<path d="M10.6614 20.1725C11.9855 22.2787 13.7061 23.2262 16.0478 22.3003C15.0185 20.2814 12.8169 18.8877 10.6614 20.1725Z" fill="#79C1DC"/>
<path d="M42.4268 13.7625C41.1753 16.5923 39.2336 18.0766 36.2007 17.3817C37.1063 14.7142 39.5589 12.5928 42.4268 13.7625Z" fill="#79C1DC"/>
<path d="M37.7062 8.70843C38.211 12.1705 37.2641 14.8019 33.991 16.0713C33.2568 12.9817 34.3061 9.42544 37.7062 8.70843Z" fill="#79C1DC"/>
<path d="M32.8276 11.9411C29.5927 12.9917 26.9281 12.4331 25.2068 9.29109C28.0497 8.06413 31.6153 8.58403 32.8276 11.9411Z" fill="#79C1DC"/>
<path d="M53.6211 15.9302C54.0392 18.4552 55.2816 20.0594 57.8377 20.1667C57.6617 17.8462 56.1428 15.6236 53.6211 15.9302Z" fill="#79C1DC"/>
<path d="M42.2465 18.835C40.6052 22.5934 38.0638 24.5808 34.0989 23.6998C35.2877 20.1605 38.4984 17.324 42.2465 18.835Z" fill="#79C1DC"/>
<path d="M49.2816 16.098C48.0538 18.9094 46.1527 20.396 43.1869 19.737C44.0761 17.0895 46.4778 14.9676 49.2816 16.098Z" fill="#79C1DC"/>
<path d="M28.2346 13.9151C28.4455 18.0999 30.1629 20.9516 34.2872 21.6308C34.4311 17.8261 32.3797 13.9151 28.2346 13.9151Z" fill="#79C1DC"/>
<path d="M23.3867 21.4446C25.8933 24.6187 28.8252 25.8552 32.4126 23.9625C30.3946 20.8791 26.61 19.0043 23.3867 21.4446Z" fill="#79C1DC"/>
<path d="M15.1052 23.7668C17.9606 28.0562 21.5497 29.937 26.2842 27.9246C24.0386 23.8027 19.4337 21.0219 15.1052 23.7668Z" fill="#79C1DC"/>
<path d="M10.4121 26.5995C12.1724 29.2438 14.385 30.4033 17.3037 29.1627C15.9194 26.6216 13.0805 24.9073 10.4121 26.5995Z" fill="#79C1DC"/>
<path d="M19.875 37.8187C21.8137 40.138 24.0311 40.9993 26.6753 39.5065C25.1038 37.2445 22.2359 35.9243 19.875 37.8187Z" fill="#79C1DC"/>
<path d="M13.4358 33.5481C17.6417 35.7665 21.4111 35.6627 24.4417 31.8242C20.8105 29.4629 15.8153 29.2932 13.4358 33.5481Z" fill="#79C1DC"/>
</g>
<mask id="path-3-outside-1_1_887" maskUnits="userSpaceOnUse" x="74.4287" y="17.8572" width="139" height="24" fill="black">
<rect fill="white" x="74.4287" y="17.8572" width="139" height="24"/>
<path d="M93.8323 18.8572V36.7395H90.0201V28.9479H79.2409V36.7395H75.4287V18.8572H79.2409V27.032H90.0201V18.8572H93.8323Z"/>
<path d="M101.321 32.5244C101.321 34.1423 102.329 34.9513 104.345 34.9513H108.025V30.0975H104.345C102.329 30.0975 101.321 30.9065 101.321 32.5244ZM108.025 28.3093C108.025 27.0831 107.692 26.1804 107.026 25.6014C106.378 25.0223 105.528 24.7328 104.476 24.7328C103.687 24.7328 102.916 24.852 102.162 25.0905C101.409 25.3119 100.734 25.6184 100.138 26.0101L99.2178 24.4773C99.6034 24.2219 100.024 24.0005 100.48 23.8131C100.953 23.6258 101.435 23.4725 101.926 23.3533C102.417 23.2171 102.899 23.1149 103.372 23.0468C103.863 22.9786 104.318 22.9446 104.739 22.9446C105.861 22.9446 106.851 23.0723 107.71 23.3278C108.569 23.5832 109.296 23.9494 109.892 24.4263C110.488 24.9031 110.935 25.4736 111.233 26.1378C111.548 26.785 111.706 27.5088 111.706 28.3093V36.7395H104.345C101.961 36.7395 100.199 36.3904 99.0601 35.6921C97.9384 34.9939 97.3775 33.938 97.3775 32.5244C97.3775 31.1108 97.9384 30.0549 99.0601 29.3567C100.199 28.6584 101.961 28.3093 104.345 28.3093H108.025Z"/>
<path d="M114.454 34.9513H115.506C116.102 34.9513 116.584 34.7554 116.952 34.3637C117.32 33.955 117.539 33.2993 117.609 32.3967L118.266 23.4555H130.36V34.9513H132.463V40.5715H129.44L128.914 36.7395H118.003L117.478 40.5715H114.454V34.9513ZM121.158 32.3967C121.123 32.8224 121.018 33.1971 120.843 33.5207C120.685 33.8273 120.51 34.0827 120.317 34.2871C120.124 34.4915 119.94 34.6533 119.765 34.7725C119.59 34.8747 119.485 34.9343 119.449 34.9513H126.679V25.2437H121.684L121.158 32.3967Z"/>
<path d="M143.399 35.4622C144.258 35.4622 145.055 35.3175 145.791 35.0279C146.545 34.7384 147.281 34.3297 148 33.8017L149.051 35.3345C148.718 35.624 148.324 35.888 147.868 36.1264C147.43 36.3649 146.948 36.5692 146.422 36.7395C145.914 36.8928 145.379 37.012 144.819 37.0972C144.258 37.1994 143.697 37.2505 143.136 37.2505C141.891 37.2505 140.752 37.0887 139.718 36.7651C138.702 36.4585 137.834 36.0072 137.115 35.4111C136.397 34.798 135.836 34.0487 135.433 33.1631C135.047 32.2775 134.854 31.2556 134.854 30.0975C134.854 28.9564 135.038 27.9431 135.406 27.0575C135.792 26.1549 136.318 25.4055 136.984 24.8094C137.667 24.1963 138.474 23.7365 139.403 23.43C140.332 23.1064 141.357 22.9446 142.479 22.9446C143.53 22.9446 144.521 23.0979 145.45 23.4044C146.378 23.711 147.185 24.1623 147.868 24.7584C148.552 25.3374 149.095 26.0442 149.498 26.8787C149.901 27.7132 150.103 28.6584 150.103 29.7143V31.5026H138.877C139.087 32.9161 139.587 33.9294 140.375 34.5426C141.182 35.1557 142.189 35.4622 143.399 35.4622ZM142.479 24.6051C141.97 24.6051 141.497 24.6987 141.059 24.8861C140.621 25.0734 140.235 25.3715 139.902 25.7802C139.587 26.1889 139.324 26.7169 139.113 27.3641C138.921 28.0112 138.815 28.7947 138.798 29.7143H146.159C146.159 28.8287 146.054 28.0623 145.844 27.4152C145.634 26.768 145.353 26.24 145.003 25.8313C144.67 25.4055 144.275 25.099 143.819 24.9116C143.381 24.7073 142.934 24.6051 142.479 24.6051Z"/>
<path d="M156.009 36.7395H151.803L156.666 29.9698L152.066 23.4555H156.009L160.084 29.2034H162.319V23.4555H166V29.2034H168.234L172.31 23.4555H176.253L171.652 29.9698L176.516 36.7395H172.31L168.234 30.9916H166V36.7395H162.319V30.9916H160.084L156.009 36.7395Z"/>
<path d="M178.106 34.9513H179.158C179.753 34.9513 180.235 34.7554 180.604 34.3637C180.972 33.955 181.191 33.2993 181.261 32.3967L181.918 23.4555H194.012V34.9513H196.115V40.5715H193.092L192.566 36.7395H181.655L181.129 40.5715H178.106V34.9513ZM184.81 32.3967C184.775 32.8224 184.67 33.1971 184.495 33.5207C184.337 33.8273 184.162 34.0827 183.969 34.2871C183.776 34.4915 183.592 34.6533 183.417 34.7725C183.241 34.8747 183.136 34.9343 183.101 34.9513H190.331V25.2437H185.336L184.81 32.3967Z"/>
<path d="M202.187 32.5244C202.187 34.1423 203.194 34.9513 205.21 34.9513H208.891V30.0975H205.21C203.194 30.0975 202.187 30.9065 202.187 32.5244ZM208.891 28.3093C208.891 27.0831 208.558 26.1804 207.892 25.6014C207.243 25.0223 206.393 24.7328 205.342 24.7328C204.553 24.7328 203.782 24.852 203.028 25.0905C202.274 25.3119 201.6 25.6184 201.004 26.0101L200.083 24.4773C200.469 24.2219 200.89 24.0005 201.345 23.8131C201.819 23.6258 202.301 23.4725 202.791 23.3533C203.282 23.2171 203.764 23.1149 204.237 23.0468C204.728 22.9786 205.184 22.9446 205.604 22.9446C206.726 22.9446 207.717 23.0723 208.575 23.3278C209.434 23.5832 210.162 23.9494 210.757 24.4263C211.353 24.9031 211.8 25.4736 212.098 26.1378C212.414 26.785 212.572 27.5088 212.572 28.3093V36.7395H205.21C202.826 36.7395 201.065 36.3904 199.926 35.6921C198.804 34.9939 198.243 33.938 198.243 32.5244C198.243 31.1108 198.804 30.0549 199.926 29.3567C201.065 28.6584 202.826 28.3093 205.21 28.3093H208.891Z"/>
</mask>
<path d="M93.8323 18.8572V36.7395H90.0201V28.9479H79.2409V36.7395H75.4287V18.8572H79.2409V27.032H90.0201V18.8572H93.8323Z" fill="#11394A"/>
<path d="M101.321 32.5244C101.321 34.1423 102.329 34.9513 104.345 34.9513H108.025V30.0975H104.345C102.329 30.0975 101.321 30.9065 101.321 32.5244ZM108.025 28.3093C108.025 27.0831 107.692 26.1804 107.026 25.6014C106.378 25.0223 105.528 24.7328 104.476 24.7328C103.687 24.7328 102.916 24.852 102.162 25.0905C101.409 25.3119 100.734 25.6184 100.138 26.0101L99.2178 24.4773C99.6034 24.2219 100.024 24.0005 100.48 23.8131C100.953 23.6258 101.435 23.4725 101.926 23.3533C102.417 23.2171 102.899 23.1149 103.372 23.0468C103.863 22.9786 104.318 22.9446 104.739 22.9446C105.861 22.9446 106.851 23.0723 107.71 23.3278C108.569 23.5832 109.296 23.9494 109.892 24.4263C110.488 24.9031 110.935 25.4736 111.233 26.1378C111.548 26.785 111.706 27.5088 111.706 28.3093V36.7395H104.345C101.961 36.7395 100.199 36.3904 99.0601 35.6921C97.9384 34.9939 97.3775 33.938 97.3775 32.5244C97.3775 31.1108 97.9384 30.0549 99.0601 29.3567C100.199 28.6584 101.961 28.3093 104.345 28.3093H108.025Z" fill="#11394A"/>
<path d="M114.454 34.9513H115.506C116.102 34.9513 116.584 34.7554 116.952 34.3637C117.32 33.955 117.539 33.2993 117.609 32.3967L118.266 23.4555H130.36V34.9513H132.463V40.5715H129.44L128.914 36.7395H118.003L117.478 40.5715H114.454V34.9513ZM121.158 32.3967C121.123 32.8224 121.018 33.1971 120.843 33.5207C120.685 33.8273 120.51 34.0827 120.317 34.2871C120.124 34.4915 119.94 34.6533 119.765 34.7725C119.59 34.8747 119.485 34.9343 119.449 34.9513H126.679V25.2437H121.684L121.158 32.3967Z" fill="#11394A"/>
<path d="M143.399 35.4622C144.258 35.4622 145.055 35.3175 145.791 35.0279C146.545 34.7384 147.281 34.3297 148 33.8017L149.051 35.3345C148.718 35.624 148.324 35.888 147.868 36.1264C147.43 36.3649 146.948 36.5692 146.422 36.7395C145.914 36.8928 145.379 37.012 144.819 37.0972C144.258 37.1994 143.697 37.2505 143.136 37.2505C141.891 37.2505 140.752 37.0887 139.718 36.7651C138.702 36.4585 137.834 36.0072 137.115 35.4111C136.397 34.798 135.836 34.0487 135.433 33.1631C135.047 32.2775 134.854 31.2556 134.854 30.0975C134.854 28.9564 135.038 27.9431 135.406 27.0575C135.792 26.1549 136.318 25.4055 136.984 24.8094C137.667 24.1963 138.474 23.7365 139.403 23.43C140.332 23.1064 141.357 22.9446 142.479 22.9446C143.53 22.9446 144.521 23.0979 145.45 23.4044C146.378 23.711 147.185 24.1623 147.868 24.7584C148.552 25.3374 149.095 26.0442 149.498 26.8787C149.901 27.7132 150.103 28.6584 150.103 29.7143V31.5026H138.877C139.087 32.9161 139.587 33.9294 140.375 34.5426C141.182 35.1557 142.189 35.4622 143.399 35.4622ZM142.479 24.6051C141.97 24.6051 141.497 24.6987 141.059 24.8861C140.621 25.0734 140.235 25.3715 139.902 25.7802C139.587 26.1889 139.324 26.7169 139.113 27.3641C138.921 28.0112 138.815 28.7947 138.798 29.7143H146.159C146.159 28.8287 146.054 28.0623 145.844 27.4152C145.634 26.768 145.353 26.24 145.003 25.8313C144.67 25.4055 144.275 25.099 143.819 24.9116C143.381 24.7073 142.934 24.6051 142.479 24.6051Z" fill="#11394A"/>
<path d="M156.009 36.7395H151.803L156.666 29.9698L152.066 23.4555H156.009L160.084 29.2034H162.319V23.4555H166V29.2034H168.234L172.31 23.4555H176.253L171.652 29.9698L176.516 36.7395H172.31L168.234 30.9916H166V36.7395H162.319V30.9916H160.084L156.009 36.7395Z" fill="#11394A"/>
<path d="M178.106 34.9513H179.158C179.753 34.9513 180.235 34.7554 180.604 34.3637C180.972 33.955 181.191 33.2993 181.261 32.3967L181.918 23.4555H194.012V34.9513H196.115V40.5715H193.092L192.566 36.7395H181.655L181.129 40.5715H178.106V34.9513ZM184.81 32.3967C184.775 32.8224 184.67 33.1971 184.495 33.5207C184.337 33.8273 184.162 34.0827 183.969 34.2871C183.776 34.4915 183.592 34.6533 183.417 34.7725C183.241 34.8747 183.136 34.9343 183.101 34.9513H190.331V25.2437H185.336L184.81 32.3967Z" fill="#11394A"/>
<path d="M202.187 32.5244C202.187 34.1423 203.194 34.9513 205.21 34.9513H208.891V30.0975H205.21C203.194 30.0975 202.187 30.9065 202.187 32.5244ZM208.891 28.3093C208.891 27.0831 208.558 26.1804 207.892 25.6014C207.243 25.0223 206.393 24.7328 205.342 24.7328C204.553 24.7328 203.782 24.852 203.028 25.0905C202.274 25.3119 201.6 25.6184 201.004 26.0101L200.083 24.4773C200.469 24.2219 200.89 24.0005 201.345 23.8131C201.819 23.6258 202.301 23.4725 202.791 23.3533C203.282 23.2171 203.764 23.1149 204.237 23.0468C204.728 22.9786 205.184 22.9446 205.604 22.9446C206.726 22.9446 207.717 23.0723 208.575 23.3278C209.434 23.5832 210.162 23.9494 210.757 24.4263C211.353 24.9031 211.8 25.4736 212.098 26.1378C212.414 26.785 212.572 27.5088 212.572 28.3093V36.7395H205.21C202.826 36.7395 201.065 36.3904 199.926 35.6921C198.804 34.9939 198.243 33.938 198.243 32.5244C198.243 31.1108 198.804 30.0549 199.926 29.3567C201.065 28.6584 202.826 28.3093 205.21 28.3093H208.891Z" fill="#11394A"/>
<path d="M93.8323 18.8572V36.7395H90.0201V28.9479H79.2409V36.7395H75.4287V18.8572H79.2409V27.032H90.0201V18.8572H93.8323Z" stroke="#11394A" stroke-width="0.685714" mask="url(#path-3-outside-1_1_887)"/>
<path d="M101.321 32.5244C101.321 34.1423 102.329 34.9513 104.345 34.9513H108.025V30.0975H104.345C102.329 30.0975 101.321 30.9065 101.321 32.5244ZM108.025 28.3093C108.025 27.0831 107.692 26.1804 107.026 25.6014C106.378 25.0223 105.528 24.7328 104.476 24.7328C103.687 24.7328 102.916 24.852 102.162 25.0905C101.409 25.3119 100.734 25.6184 100.138 26.0101L99.2178 24.4773C99.6034 24.2219 100.024 24.0005 100.48 23.8131C100.953 23.6258 101.435 23.4725 101.926 23.3533C102.417 23.2171 102.899 23.1149 103.372 23.0468C103.863 22.9786 104.318 22.9446 104.739 22.9446C105.861 22.9446 106.851 23.0723 107.71 23.3278C108.569 23.5832 109.296 23.9494 109.892 24.4263C110.488 24.9031 110.935 25.4736 111.233 26.1378C111.548 26.785 111.706 27.5088 111.706 28.3093V36.7395H104.345C101.961 36.7395 100.199 36.3904 99.0601 35.6921C97.9384 34.9939 97.3775 33.938 97.3775 32.5244C97.3775 31.1108 97.9384 30.0549 99.0601 29.3567C100.199 28.6584 101.961 28.3093 104.345 28.3093H108.025Z" stroke="#11394A" stroke-width="0.685714" mask="url(#path-3-outside-1_1_887)"/>
<path d="M114.454 34.9513H115.506C116.102 34.9513 116.584 34.7554 116.952 34.3637C117.32 33.955 117.539 33.2993 117.609 32.3967L118.266 23.4555H130.36V34.9513H132.463V40.5715H129.44L128.914 36.7395H118.003L117.478 40.5715H114.454V34.9513ZM121.158 32.3967C121.123 32.8224 121.018 33.1971 120.843 33.5207C120.685 33.8273 120.51 34.0827 120.317 34.2871C120.124 34.4915 119.94 34.6533 119.765 34.7725C119.59 34.8747 119.485 34.9343 119.449 34.9513H126.679V25.2437H121.684L121.158 32.3967Z" stroke="#11394A" stroke-width="0.685714" mask="url(#path-3-outside-1_1_887)"/>
<path d="M143.399 35.4622C144.258 35.4622 145.055 35.3175 145.791 35.0279C146.545 34.7384 147.281 34.3297 148 33.8017L149.051 35.3345C148.718 35.624 148.324 35.888 147.868 36.1264C147.43 36.3649 146.948 36.5692 146.422 36.7395C145.914 36.8928 145.379 37.012 144.819 37.0972C144.258 37.1994 143.697 37.2505 143.136 37.2505C141.891 37.2505 140.752 37.0887 139.718 36.7651C138.702 36.4585 137.834 36.0072 137.115 35.4111C136.397 34.798 135.836 34.0487 135.433 33.1631C135.047 32.2775 134.854 31.2556 134.854 30.0975C134.854 28.9564 135.038 27.9431 135.406 27.0575C135.792 26.1549 136.318 25.4055 136.984 24.8094C137.667 24.1963 138.474 23.7365 139.403 23.43C140.332 23.1064 141.357 22.9446 142.479 22.9446C143.53 22.9446 144.521 23.0979 145.45 23.4044C146.378 23.711 147.185 24.1623 147.868 24.7584C148.552 25.3374 149.095 26.0442 149.498 26.8787C149.901 27.7132 150.103 28.6584 150.103 29.7143V31.5026H138.877C139.087 32.9161 139.587 33.9294 140.375 34.5426C141.182 35.1557 142.189 35.4622 143.399 35.4622ZM142.479 24.6051C141.97 24.6051 141.497 24.6987 141.059 24.8861C140.621 25.0734 140.235 25.3715 139.902 25.7802C139.587 26.1889 139.324 26.7169 139.113 27.3641C138.921 28.0112 138.815 28.7947 138.798 29.7143H146.159C146.159 28.8287 146.054 28.0623 145.844 27.4152C145.634 26.768 145.353 26.24 145.003 25.8313C144.67 25.4055 144.275 25.099 143.819 24.9116C143.381 24.7073 142.934 24.6051 142.479 24.6051Z" stroke="#11394A" stroke-width="0.685714" mask="url(#path-3-outside-1_1_887)"/>
<path d="M156.009 36.7395H151.803L156.666 29.9698L152.066 23.4555H156.009L160.084 29.2034H162.319V23.4555H166V29.2034H168.234L172.31 23.4555H176.253L171.652 29.9698L176.516 36.7395H172.31L168.234 30.9916H166V36.7395H162.319V30.9916H160.084L156.009 36.7395Z" stroke="#11394A" stroke-width="0.685714" mask="url(#path-3-outside-1_1_887)"/>
<path d="M178.106 34.9513H179.158C179.753 34.9513 180.235 34.7554 180.604 34.3637C180.972 33.955 181.191 33.2993 181.261 32.3967L181.918 23.4555H194.012V34.9513H196.115V40.5715H193.092L192.566 36.7395H181.655L181.129 40.5715H178.106V34.9513ZM184.81 32.3967C184.775 32.8224 184.67 33.1971 184.495 33.5207C184.337 33.8273 184.162 34.0827 183.969 34.2871C183.776 34.4915 183.592 34.6533 183.417 34.7725C183.241 34.8747 183.136 34.9343 183.101 34.9513H190.331V25.2437H185.336L184.81 32.3967Z" stroke="#11394A" stroke-width="0.685714" mask="url(#path-3-outside-1_1_887)"/>
<path d="M202.187 32.5244C202.187 34.1423 203.194 34.9513 205.21 34.9513H208.891V30.0975H205.21C203.194 30.0975 202.187 30.9065 202.187 32.5244ZM208.891 28.3093C208.891 27.0831 208.558 26.1804 207.892 25.6014C207.243 25.0223 206.393 24.7328 205.342 24.7328C204.553 24.7328 203.782 24.852 203.028 25.0905C202.274 25.3119 201.6 25.6184 201.004 26.0101L200.083 24.4773C200.469 24.2219 200.89 24.0005 201.345 23.8131C201.819 23.6258 202.301 23.4725 202.791 23.3533C203.282 23.2171 203.764 23.1149 204.237 23.0468C204.728 22.9786 205.184 22.9446 205.604 22.9446C206.726 22.9446 207.717 23.0723 208.575 23.3278C209.434 23.5832 210.162 23.9494 210.757 24.4263C211.353 24.9031 211.8 25.4736 212.098 26.1378C212.414 26.785 212.572 27.5088 212.572 28.3093V36.7395H205.21C202.826 36.7395 201.065 36.3904 199.926 35.6921C198.804 34.9939 198.243 33.938 198.243 32.5244C198.243 31.1108 198.804 30.0549 199.926 29.3567C201.065 28.6584 202.826 28.3093 205.21 28.3093H208.891Z" stroke="#11394A" stroke-width="0.685714" mask="url(#path-3-outside-1_1_887)"/>
<path d="M75.4287 52.3682V47.179H76.1912L78.7118 51.1623H78.3941L80.957 47.179H81.6559V52.3682H80.9675V47.9796L81.1052 48.0389L78.7118 51.7356H78.3729L75.9582 47.9993L76.1171 47.9697V52.3682H75.4287Z" fill="#BCC4BC"/>
<path d="M87.7671 52.4176C87.1881 52.4176 86.6798 52.3056 86.242 52.0815C85.8043 51.8509 85.4619 51.5379 85.2148 51.1425C84.9676 50.7406 84.8441 50.2826 84.8441 49.7686C84.8441 49.2546 84.9606 48.8 85.1936 48.4046C85.4336 48.0092 85.7584 47.6995 86.1679 47.4755C86.5845 47.2449 87.0504 47.1295 87.5658 47.1295C88.0883 47.1295 88.5508 47.2416 88.9532 47.4656C89.3627 47.6831 89.6839 47.9928 89.9169 48.3947C90.1499 48.7901 90.2664 49.248 90.2664 49.7686C90.2664 49.8016 90.2629 49.8378 90.2558 49.8773C90.2558 49.9103 90.2558 49.9465 90.2558 49.9861H85.416V49.4622H89.8534L89.5569 49.6698C89.5569 49.2942 89.4686 48.9614 89.2921 48.6715C89.1227 48.3749 88.8897 48.1443 88.5931 47.9796C88.2966 47.8148 87.9542 47.7325 87.5658 47.7325C87.1846 47.7325 86.8422 47.8148 86.5386 47.9796C86.235 48.1443 85.9985 48.3749 85.829 48.6715C85.6596 48.968 85.5748 49.3074 85.5748 49.6895V49.7983C85.5748 50.1936 85.6666 50.5429 85.8502 50.846C86.0408 51.1425 86.302 51.3764 86.6339 51.5478C86.9728 51.7125 87.3576 51.7949 87.7882 51.7949C88.1271 51.7949 88.4413 51.7389 88.7308 51.6268C89.0273 51.5148 89.2815 51.3435 89.4933 51.1129L89.9169 51.5675C89.6698 51.8443 89.3592 52.0552 88.985 52.2001C88.6178 52.3451 88.2119 52.4176 87.7671 52.4176Z" fill="#BCC4BC"/>
<path d="M97.2183 52.0321V47.7918H94.5389L94.4753 48.9482C94.4612 49.2975 94.4365 49.6401 94.4012 49.9762C94.373 50.3122 94.32 50.6219 94.2423 50.9053C94.1717 51.1821 94.0694 51.4094 93.9352 51.5873C93.8011 51.7586 93.6281 51.8575 93.4163 51.8838L92.6643 51.7553C92.8832 51.7619 93.0633 51.6894 93.2045 51.5379C93.3457 51.3797 93.4551 51.1656 93.5328 50.8954C93.6104 50.6252 93.6669 50.3188 93.7022 49.9762C93.7375 49.6269 93.7658 49.2711 93.7869 48.9087L93.8611 47.179H97.9702V52.0321H97.2183ZM92.4314 53.6234V51.7553H98.8386V53.6234H98.1291V52.3682H93.1409V53.6234H92.4314Z" fill="#BCC4BC"/>
<path d="M101.893 52.3682V47.179H102.644V51.3007L106.362 47.179H107.029V52.3682H106.277V48.2366L102.57 52.3682H101.893Z" fill="#BCC4BC"/>
<path d="M110.772 52.3682V47.179H111.524V51.7553H114.924V47.179H115.676V52.3682H110.772ZM115.866 53.6234V52.3088L116.057 52.3682H114.924V51.7553H116.576V53.6234H115.866Z" fill="#BCC4BC"/>
<path d="M119.601 52.3682V47.179H120.353V51.3007L124.07 47.179H124.737V52.3682H123.985V48.2366L120.278 52.3682H119.601Z" fill="#BCC4BC"/>
<path d="M128.481 52.3682V47.179H129.232V49.4721H132.738V47.179H133.49V52.3682H132.738V50.075H129.232V52.3682H128.481Z" fill="#BCC4BC"/>
<path d="M139.546 52.4176C138.995 52.4176 138.501 52.3056 138.063 52.0815C137.632 51.8509 137.293 51.5379 137.046 51.1425C136.799 50.7406 136.676 50.2826 136.676 49.7686C136.676 49.248 136.799 48.7901 137.046 48.3947C137.293 47.9993 137.632 47.6896 138.063 47.4656C138.501 47.2416 138.995 47.1295 139.546 47.1295C140.019 47.1295 140.446 47.2152 140.827 47.3865C141.208 47.5579 141.508 47.8148 141.727 48.1575L141.166 48.5133C140.975 48.2497 140.739 48.0554 140.456 47.9302C140.174 47.805 139.867 47.7424 139.535 47.7424C139.14 47.7424 138.783 47.828 138.465 47.9993C138.148 48.1641 137.897 48.398 137.713 48.7011C137.53 49.0042 137.438 49.3601 137.438 49.7686C137.438 50.1772 137.53 50.533 137.713 50.8361C137.897 51.1392 138.148 51.3764 138.465 51.5478C138.783 51.7125 139.14 51.7949 139.535 51.7949C139.867 51.7949 140.174 51.7323 140.456 51.6071C140.739 51.4819 140.975 51.2908 141.166 51.0338L141.727 51.3896C141.508 51.7257 141.208 51.9827 140.827 52.1606C140.446 52.3319 140.019 52.4176 139.546 52.4176Z" fill="#BCC4BC"/>
<path d="M148.849 52.3682L146.562 49.7983L147.186 49.4523L149.739 52.3682H148.849ZM144.772 52.3682V47.179H145.524V52.3682H144.772ZM145.291 50.0553V49.4523H147.08V50.0553H145.291ZM147.25 49.8477L146.551 49.7488L148.764 47.179H149.58L147.25 49.8477Z" fill="#BCC4BC"/>
<path d="M152.514 52.3682V47.179H153.266V51.3007L156.983 47.179H157.65V52.3682H156.898V48.2366L153.192 52.3682H152.514Z" fill="#BCC4BC"/>
<path d="M161.394 52.3682V47.179H162.146V51.3007L165.863 47.179H166.53V52.3682H165.778V48.2366L162.072 52.3682H161.394ZM163.914 46.4278C163.448 46.4278 163.071 46.319 162.781 46.1016C162.499 45.8775 162.351 45.558 162.336 45.1428H162.877C162.884 45.4064 162.982 45.614 163.173 45.7655C163.364 45.9171 163.611 45.9929 163.914 45.9929C164.218 45.9929 164.465 45.9171 164.656 45.7655C164.853 45.614 164.956 45.4064 164.963 45.1428H165.503C165.496 45.558 165.348 45.8775 165.058 46.1016C164.769 46.319 164.387 46.4278 163.914 46.4278Z" fill="#BCC4BC"/>
<path d="M174.634 52.3682V47.179H175.386V51.7553H178.786V47.179H179.537V52.3682H174.634ZM179.728 53.6234V52.3088L179.919 52.3682H178.786V51.7553H180.438V53.6234H179.728Z" fill="#BCC4BC"/>
<path d="M185.845 52.4176C185.266 52.4176 184.758 52.3056 184.32 52.0815C183.882 51.8509 183.54 51.5379 183.293 51.1425C183.046 50.7406 182.922 50.2826 182.922 49.7686C182.922 49.2546 183.039 48.8 183.272 48.4046C183.512 48.0092 183.836 47.6995 184.246 47.4755C184.662 47.2449 185.128 47.1295 185.644 47.1295C186.166 47.1295 186.629 47.2416 187.031 47.4656C187.441 47.6831 187.762 47.9928 187.995 48.3947C188.228 48.7901 188.344 49.248 188.344 49.7686C188.344 49.8016 188.341 49.8378 188.334 49.8773C188.334 49.9103 188.334 49.9465 188.334 49.9861H183.494V49.4622H187.931L187.635 49.6698C187.635 49.2942 187.547 48.9614 187.37 48.6715C187.201 48.3749 186.968 48.1443 186.671 47.9796C186.375 47.8148 186.032 47.7325 185.644 47.7325C185.263 47.7325 184.92 47.8148 184.617 47.9796C184.313 48.1443 184.076 48.3749 183.907 48.6715C183.738 48.968 183.653 49.3074 183.653 49.6895V49.7983C183.653 50.1936 183.745 50.5429 183.928 50.846C184.119 51.1425 184.38 51.3764 184.712 51.5478C185.051 51.7125 185.436 51.7949 185.866 51.7949C186.205 51.7949 186.519 51.7389 186.809 51.6268C187.105 51.5148 187.36 51.3435 187.571 51.1129L187.995 51.5675C187.748 51.8443 187.437 52.0552 187.063 52.2001C186.696 52.3451 186.29 52.4176 185.845 52.4176Z" fill="#BCC4BC"/>
<path d="M191.597 52.3682V47.179H192.349V49.4721H195.855V47.179H196.607V52.3682H195.855V50.075H192.349V52.3682H191.597Z" fill="#BCC4BC"/>
<path d="M201.392 52.3682V47.604L201.582 47.7918H199.284V47.179H204.251V47.7918H201.953L202.144 47.604V52.3682H201.392Z" fill="#BCC4BC"/>
<path d="M209.797 52.4176C209.317 52.4176 208.883 52.3154 208.494 52.1112C208.106 51.9003 207.795 51.6005 207.562 51.2117C207.336 50.8163 207.223 50.3353 207.223 49.7686C207.223 49.2019 207.336 48.7242 207.562 48.3354C207.788 47.94 208.095 47.6402 208.484 47.4359C208.872 47.2317 209.31 47.1295 209.797 47.1295C210.326 47.1295 210.799 47.2416 211.216 47.4656C211.64 47.6831 211.971 47.9928 212.211 48.3947C212.452 48.7901 212.572 49.248 212.572 49.7686C212.572 50.2958 212.452 50.757 212.211 51.1524C211.971 51.5478 211.64 51.8575 211.216 52.0815C210.799 52.3056 210.326 52.4176 209.797 52.4176ZM206.927 54.2857V47.179H207.647V48.7407L207.573 49.7785L207.679 50.8262V54.2857H206.927ZM209.744 51.7949C210.139 51.7949 210.492 51.7125 210.803 51.5478C211.114 51.3764 211.361 51.1392 211.544 50.8361C211.728 50.5264 211.82 50.1706 211.82 49.7686C211.82 49.3667 211.728 49.0141 211.544 48.711C211.361 48.4079 211.114 48.1707 210.803 47.9993C210.492 47.828 210.139 47.7424 209.744 47.7424C209.349 47.7424 208.992 47.828 208.674 47.9993C208.364 48.1707 208.117 48.4079 207.933 48.711C207.756 49.0141 207.668 49.3667 207.668 49.7686C207.668 50.1706 207.756 50.5264 207.933 50.8361C208.117 51.1392 208.364 51.3764 208.674 51.5478C208.992 51.7125 209.349 51.7949 209.744 51.7949Z" fill="#BCC4BC"/>
<defs>
<clipPath id="clip0_1_887">
<rect width="66.2857" height="64" fill="white"/>
</clipPath>
</defs>
</svg>
