<svg width="72" height="72" viewBox="0 0 72 72" fill="none" xmlns="http://www.w3.org/2000/svg">
<path d="M60.3007 42.7854C60.3007 33.5002 54.5164 25.1627 45.8646 21.8572C45.3984 20.6546 44.6417 19.5803 43.657 18.7425L46.6376 13.1279C46.6376 13.1272 46.6383 13.1265 46.6383 13.1258C47.4331 11.6204 46.9395 9.78213 45.5647 8.84079L46.8178 6.4804C46.9608 6.21348 47.0493 5.92086 47.0783 5.61949C47.1073 5.31811 47.0763 5.01397 46.9869 4.72469C46.8989 4.43501 46.7544 4.16563 46.5617 3.93212C46.3691 3.69862 46.132 3.50562 45.8643 3.36429L41.6822 1.14326C40.5589 0.546304 39.1618 0.975211 38.5658 2.09754L37.3131 4.45596C35.6612 3.79685 33.9245 4.53134 33.1625 5.96824L18.5979 33.3865C17.8027 34.8911 18.2953 36.7291 19.6698 37.6714L18.4171 40.0306C18.2738 40.2975 18.1851 40.5904 18.1561 40.8919C18.1271 41.1935 18.1583 41.4979 18.2481 41.7873C18.336 42.0769 18.4805 42.3462 18.6732 42.5797C18.8659 42.8131 19.1029 43.006 19.3707 43.1472L23.5521 45.3683C24.6802 45.9676 26.0757 45.5299 26.6685 44.414L27.9146 42.0681C28.3033 42.225 28.7185 42.3061 29.1376 42.307C30.3182 42.307 31.4737 41.6746 32.0732 40.5399L36.5718 32.0746C37.2095 32.2532 37.8449 32.3706 38.6641 32.3706C40.5135 32.3706 42.2622 31.6985 43.6289 30.5527C48.3764 32.7809 51.4131 37.5079 51.4131 42.7856C51.4131 50.2349 45.3528 56.2951 37.9032 56.2951C33.9923 56.2951 30.3445 54.6151 27.7971 51.7273H30.9725C31.2518 51.7228 31.5181 51.6087 31.714 51.4095C31.9099 51.2104 32.0197 50.9423 32.0197 50.6629C32.0197 50.3836 31.9099 50.1155 31.714 49.9164C31.5181 49.7172 31.2518 49.6031 30.9725 49.5986H12.7635C12.4842 49.6031 12.2179 49.7172 12.022 49.9164C11.8261 50.1155 11.7163 50.3836 11.7163 50.6629C11.7163 50.9423 11.8261 51.2104 12.022 51.4095C12.2179 51.6087 12.4842 51.7228 12.7635 51.7273H17.3822C19.1244 55.7034 21.9985 59.0959 25.587 61.4739H24.254C22.0212 61.4739 20.2041 63.2906 20.2041 65.5238V70.0619C20.2042 70.3442 20.3163 70.6149 20.5159 70.8145C20.7155 71.0141 20.9863 71.1262 21.2685 71.1263H56.0526C56.3348 71.1262 56.6055 71.0141 56.8051 70.8145C57.0048 70.6149 57.1169 70.3442 57.1169 70.0619V65.5238C57.1169 63.2906 55.2999 61.4739 53.0671 61.4739H50.2163C56.4476 57.3826 60.3007 50.4391 60.3007 42.7854ZM40.4466 3.09584C40.4571 3.07532 40.4717 3.05713 40.4895 3.04234C40.5072 3.02755 40.5277 3.01645 40.5498 3.0097C40.5719 3.00296 40.5951 3.00069 40.618 3.00305C40.641 3.0054 40.6633 3.01233 40.6835 3.02341L44.8657 5.24444C44.8862 5.25512 44.9043 5.26977 44.9191 5.28755C44.9338 5.30533 44.9449 5.32588 44.9516 5.34799C44.9583 5.3701 44.9605 5.39333 44.9582 5.41631C44.9558 5.43929 44.9488 5.46156 44.9377 5.48182L43.7022 7.80916L39.2102 5.42318L40.4466 3.09584ZM24.6845 43.5013C24.6624 43.5082 24.6392 43.5106 24.6162 43.5083C24.5933 43.5061 24.571 43.4992 24.5507 43.4881L20.3692 41.2671C20.3159 41.2384 20.293 41.1949 20.2833 41.1634C20.2736 41.1319 20.2681 41.0834 20.2972 41.0297L21.5326 38.7031L26.0241 41.0884L24.7878 43.4157C24.7593 43.4691 24.7164 43.4916 24.6845 43.5013ZM34.6123 31.2253L30.1925 39.543C30.0434 39.8247 29.7939 40.0313 29.4898 40.1245C29.1856 40.2177 28.864 40.1865 28.5806 40.0362C18.1835 34.5129 23.0598 37.104 20.9758 35.9972C20.395 35.6878 20.1726 34.9629 20.4796 34.3835L35.0426 6.96682C35.1162 6.82857 35.2164 6.70619 35.3373 6.60671C35.4583 6.50723 35.5977 6.43259 35.7476 6.38708C35.8974 6.34157 36.0548 6.32607 36.2107 6.34148C36.3665 6.35689 36.5178 6.4029 36.6559 6.47688C47.4892 12.2314 41.8105 9.21457 44.2607 10.5159C44.8401 10.825 45.0626 11.5485 44.7569 12.1299L41.8567 17.5934C41.5223 17.4411 40.8151 17.1815 40.1666 17.0529C35.991 16.224 31.9044 18.9474 31.0718 23.138C30.4504 26.2866 31.8795 29.546 34.6123 31.2253ZM37.5727 30.1339C34.7792 29.5803 32.8418 26.9952 33.0778 24.1769C33.0798 24.1522 33.0801 24.1274 33.0824 24.1025C33.4031 20.7959 36.5271 18.5016 39.7585 19.1433C42.729 19.7202 44.7595 22.6807 44.1541 25.727C43.5622 28.7177 40.6288 30.7406 37.5727 30.1339ZM54.9883 65.5235V68.9971H22.3332V65.5235C22.3332 64.4643 23.1952 63.6026 24.2541 63.6026H53.0674C54.1263 63.6026 54.9883 64.4643 54.9883 65.5235ZM45.7348 61.4738H30.0663C25.5743 59.5829 21.8807 56.0862 19.7228 51.7272H25.0858C28.0199 55.9316 32.7683 58.4239 37.9034 58.4239C46.5262 58.4239 53.5421 51.4084 53.5421 42.7856C53.5421 36.8907 50.2754 31.5817 45.1098 28.9001C46.0152 27.528 46.4376 25.9203 46.387 24.3707C53.5054 27.6632 58.1719 34.8467 58.1719 42.7856C58.1719 50.9836 53.2974 58.2964 45.7348 61.4738Z" fill="#11394A"/>
</svg>
