<svg width="65" height="64" viewBox="0 0 65 64" fill="none" xmlns="http://www.w3.org/2000/svg">
<rect x="0.5" width="64" height="64" rx="32" fill="white"/>
<path d="M42.5063 15.2735C36.4079 14.1089 30.0749 14.1089 23.9764 15.2735C21.2791 15.8558 17.878 19.1167 17.2916 21.6789C16.2361 26.6867 16.2361 31.811 17.2916 36.8189C17.9953 39.381 21.3963 42.642 23.9764 43.2243C24.0937 43.2243 24.211 43.3407 24.211 43.4572V50.7943C24.211 51.1437 24.6801 51.3766 24.9147 51.0272L28.433 47.4169C28.433 47.4169 31.2476 44.5053 31.7168 44.0395C31.7168 44.0395 31.834 43.923 31.9513 43.923C35.4696 44.0395 39.1052 43.6901 42.6236 43.1078C45.3209 42.5255 48.722 39.2646 49.3084 36.7024C50.3639 31.6946 50.3639 26.5703 49.3084 21.5624C48.6047 19.1167 45.2037 15.8558 42.5063 15.2735ZM42.6236 37.1683C42.0372 38.3329 41.3335 39.2646 40.1607 39.8469C39.8089 39.9633 39.4571 40.0798 39.1052 40.1963C38.6361 40.0798 38.2843 39.9633 37.9325 39.8469C34.1796 38.3329 30.6613 36.2366 27.8466 33.2086C26.322 31.4616 25.0319 29.4818 23.9764 27.3855C23.5073 26.3373 23.0382 25.4056 22.6864 24.3575C22.3346 23.4258 22.9209 22.4941 23.5073 21.7953C24.0937 21.0966 24.7974 20.6307 25.6183 20.2813C26.2047 19.9319 26.7911 20.1649 27.2602 20.6307C28.1984 21.7953 29.1366 22.96 29.8403 24.241C30.3094 25.0563 30.1921 25.988 29.3712 26.5703C29.1366 26.6867 29.0194 26.8032 28.7848 27.0361C28.6675 27.1526 28.433 27.269 28.3157 27.502C28.0811 27.8513 28.0811 28.2007 28.1984 28.5501C29.1366 31.2287 30.8958 33.325 33.5932 34.4896C34.0623 34.7226 34.4141 34.839 35.0005 34.839C35.8215 34.7226 36.1733 33.7909 36.7597 33.325C37.3461 32.8592 38.0497 32.8592 38.7534 33.2086C39.3398 33.558 39.9262 34.0238 40.6298 34.4896C41.2162 34.9555 41.8026 35.3049 42.389 35.7707C42.7408 36.0037 42.8581 36.586 42.6236 37.1683ZM37.6979 28.4336C37.4633 28.4336 37.5806 28.4336 37.6979 28.4336C37.2288 28.4336 37.1115 28.2007 36.9942 27.8513C36.9942 27.6184 36.9942 27.269 36.877 27.0361C36.7597 26.5703 36.5251 26.1044 36.056 25.755C35.8215 25.6386 35.5869 25.5221 35.3524 25.4056C35.0005 25.2892 34.766 25.2892 34.4141 25.2892C34.0623 25.1727 33.945 24.9398 33.945 24.5904C33.945 24.3575 34.2969 24.1246 34.5314 24.1246C36.4079 24.241 37.8152 25.2892 38.0497 27.502C38.0497 27.6184 38.0497 27.8513 38.0497 27.9678C38.0497 28.2007 37.9325 28.4336 37.6979 28.4336ZM36.5251 23.3093C35.9387 23.0764 35.3524 22.8435 34.6487 22.727C34.4141 22.727 34.0623 22.6106 33.8277 22.6106C33.4759 22.6106 33.2414 22.3776 33.3586 22.0283C33.3586 21.6789 33.5932 21.446 33.945 21.5624C35.1178 21.6789 36.1733 21.9118 37.2288 22.3776C39.3398 23.4258 40.5126 25.1727 40.8644 27.502C40.8644 27.6184 40.8644 27.7349 40.8644 27.8513C40.8644 28.0843 40.8644 28.3172 40.8644 28.6666C40.8644 28.783 40.8644 28.8995 40.8644 29.016C40.7471 29.4818 39.9262 29.5983 39.8089 29.016C39.8089 28.8995 39.6916 28.6666 39.6916 28.5501C39.6916 27.502 39.4571 26.4538 38.988 25.5221C38.2843 24.474 37.4633 23.7752 36.5251 23.3093ZM42.8581 30.297C42.5063 30.297 42.2717 29.9476 42.2717 29.5983C42.2717 28.8995 42.1545 28.2007 42.0372 27.502C41.5681 23.7752 38.5189 20.7472 34.8832 20.1649C34.2969 20.0484 33.7105 20.0484 33.2414 19.932C32.8895 19.932 32.4204 19.932 32.3031 19.4661C32.1859 19.1167 32.5377 18.7673 32.8895 18.7673C33.0068 18.7673 33.1241 18.7673 33.1241 18.7673C37.9325 18.8838 33.3586 18.7673 33.1241 18.7673C38.0497 18.8838 42.1544 22.1447 42.9754 27.0361C43.0927 27.8513 43.2099 28.6666 43.2099 29.5983C43.4445 29.9476 43.2099 30.297 42.8581 30.297Z" fill="#11394A"/>
</svg>
