<svg width="65" height="64" viewBox="0 0 65 64" fill="none" xmlns="http://www.w3.org/2000/svg">
<rect x="0.5" width="64" height="64" rx="32" fill="white"/>
<path d="M45.1829 19.3C42.0219 16.15 37.8073 14.4 33.3585 14.4C24.1098 14.4 16.6171 21.8667 16.6171 31.0834C16.6171 34 17.4366 36.9167 18.8415 39.3667L16.5 48L25.3976 45.6667C27.8561 46.95 30.5488 47.65 33.3585 47.65C42.6073 47.65 50.1 40.1834 50.1 30.9667C49.9829 26.65 48.3439 22.45 45.1829 19.3ZM41.4366 37.0334C41.0854 37.9667 39.4463 38.9 38.6268 39.0167C37.9244 39.1334 36.9878 39.1334 36.0512 38.9C35.4659 38.6667 34.6463 38.4334 33.7098 37.9667C29.4951 36.2167 26.8024 32.0167 26.5683 31.6667C26.3341 31.4334 24.8122 29.45 24.8122 27.35C24.8122 25.25 25.8659 24.3167 26.2171 23.85C26.5683 23.3834 27.0366 23.3834 27.3878 23.3834C27.622 23.3834 27.9732 23.3834 28.2073 23.3834C28.4415 23.3834 28.7927 23.2667 29.1439 24.0834C29.4951 24.9 30.3146 27 30.4317 27.1167C30.5488 27.35 30.5488 27.5834 30.4317 27.8167C30.3146 28.05 30.1976 28.2834 29.9634 28.5167C29.7293 28.75 29.4951 29.1 29.378 29.2167C29.1439 29.45 28.9098 29.6834 29.1439 30.0334C29.378 30.5 30.1976 31.7834 31.4854 32.95C33.1244 34.35 34.4122 34.8167 34.8805 35.05C35.3488 35.2834 35.5829 35.1667 35.8171 34.9334C36.0512 34.7 36.8707 33.7667 37.1049 33.3C37.339 32.8334 37.6902 32.95 38.0415 33.0667C38.3927 33.1834 40.5 34.2334 40.8512 34.4667C41.3195 34.7 41.5537 34.8167 41.6707 34.9334C41.7878 35.2834 41.7878 36.1 41.4366 37.0334Z" fill="#11394A"/>
</svg>
