<svg width="65" height="64" viewBox="0 0 65 64" fill="none" xmlns="http://www.w3.org/2000/svg">
<rect x="0.5" width="64" height="64" rx="32" fill="white"/>
<path d="M34.0719 43.2001C22.0454 43.2001 15.1857 34.7916 14.8999 20.8H20.9241C21.122 31.0695 25.5632 35.4195 29.081 36.3164V20.8H34.7535V29.6569C38.2273 29.2757 41.877 25.2397 43.1083 20.8H48.7807C48.3168 23.1026 47.3919 25.2827 46.0641 27.2041C44.7362 29.1254 43.0339 30.7467 41.0635 31.9664C43.2629 33.0809 45.2055 34.6584 46.7631 36.5948C48.3208 38.5312 49.458 40.7825 50.0999 43.2001H43.8558C43.2796 41.1002 42.1085 39.2205 40.4893 37.7966C38.8701 36.3726 36.8748 35.4677 34.7535 35.1952V43.2001H34.0719Z" fill="#11394A"/>
</svg>
