<svg width="24" height="24" viewBox="0 0 24 24" fill="none" xmlns="http://www.w3.org/2000/svg">
<path d="M23 12.75C23.4142 12.75 23.75 12.4142 23.75 12C23.75 11.5858 23.4142 11.25 23 11.25V12.75ZM2 12L1.46967 11.4697C1.17678 11.7626 1.17678 12.2374 1.46967 12.5303L2 12ZM7.46967 18.5303C7.76256 18.8232 8.23744 18.8232 8.53033 18.5303C8.82322 18.2374 8.82322 17.7626 8.53033 17.4697L7.46967 18.5303ZM8.53033 6.53033C8.82322 6.23744 8.82322 5.76256 8.53033 5.46967C8.23744 5.17678 7.76256 5.17678 7.46967 5.46967L8.53033 6.53033ZM23 11.25H2V12.75H23V11.25ZM1.46967 12.5303L7.46967 18.5303L8.53033 17.4697L2.53033 11.4697L1.46967 12.5303ZM2.53033 12.5303L8.53033 6.53033L7.46967 5.46967L1.46967 11.4697L2.53033 12.5303Z" fill="white"/>
</svg>
